<svg width="121" height="36" viewBox="0 0 121 36" fill="none" xmlns="http://www.w3.org/2000/svg">
<path d="M47.3757 5.77419C47.2828 5.77419 47.1899 5.77419 47.097 5.77419C47.004 5.77419 46.9111 5.75857 46.8182 5.72732C46.7253 5.7117 46.6479 5.68046 46.5549 5.66484C46.462 5.63359 46.3846 5.60235 46.2917 5.57111C46.2143 5.53986 46.1213 5.493 46.0439 5.44613C45.9665 5.39927 45.8891 5.3524 45.8116 5.30554C45.7342 5.25867 45.6568 5.19619 45.5948 5.1337C45.5174 5.07121 45.4554 5.00873 45.3935 4.94624C45.3316 4.88375 45.2696 4.80564 45.2077 4.74316C45.1457 4.66505 45.0993 4.60256 45.0373 4.52445C44.9909 4.44634 44.9444 4.36824 44.898 4.29013C44.8515 4.21202 44.8205 4.11829 44.7741 4.04018C44.7431 3.96207 44.7121 3.86834 44.6812 3.77461C44.6502 3.68088 44.6347 3.60277 44.6192 3.50904C44.6037 3.41531 44.5882 3.32158 44.5728 3.22785C44.5728 3.13412 44.5728 3.04039 44.5728 2.94666C44.5728 2.85293 44.5728 2.7592 44.5728 2.66547C44.5728 2.57174 44.6037 2.47801 44.6192 2.38428C44.6347 2.29055 44.6657 2.19682 44.6812 2.11871C44.7121 2.02498 44.7431 1.94688 44.7741 1.85315C44.805 1.77504 44.8515 1.68131 44.898 1.6032C44.9444 1.52509 44.9909 1.44698 45.0373 1.36887C45.0838 1.29076 45.1457 1.21266 45.2077 1.15017C45.2696 1.07206 45.3316 1.00957 45.3935 0.947087C45.4554 0.884601 45.5329 0.822114 45.5948 0.759627C45.6723 0.697141 45.7342 0.650275 45.8116 0.587789C45.8891 0.540924 45.9665 0.494059 46.0439 0.447194C46.1213 0.400328 46.2143 0.369085 46.2917 0.32222C46.3691 0.290977 46.462 0.259733 46.5549 0.22849C46.6479 0.197247 46.7253 0.181625 46.8182 0.166003C46.9111 0.150382 47.004 0.13476 47.097 0.119138C47.2828 0.103516 47.4686 0.103516 47.6544 0.119138C47.7474 0.119138 47.8403 0.150382 47.9332 0.166003C48.0261 0.181625 48.1035 0.212868 48.1964 0.22849C48.2894 0.259733 48.3668 0.290977 48.4597 0.32222C48.5371 0.353463 48.6301 0.400328 48.7075 0.447194C48.7849 0.494059 48.8623 0.540924 48.9398 0.587789C49.0172 0.634654 49.0946 0.697141 49.1566 0.759627C49.234 0.822114 49.2959 0.884601 49.3579 0.947087C49.4198 1.00957 49.4818 1.08768 49.5437 1.15017C49.6057 1.21266 49.6521 1.29076 49.7141 1.36887C49.7605 1.44698 49.807 1.52509 49.8534 1.6032C49.8999 1.68131 49.9309 1.77504 49.9773 1.85315C50.0083 1.93125 50.0393 2.02498 50.0702 2.11871C50.1012 2.21244 50.1167 2.29055 50.1322 2.38428C50.1477 2.47801 50.1632 2.57174 50.1786 2.66547C50.1941 2.7592 50.1786 2.85293 50.1786 2.94666C50.1786 3.04039 50.1786 3.13412 50.1786 3.22785C50.1786 3.32158 50.1632 3.41531 50.1322 3.50904C50.1167 3.60277 50.0857 3.6965 50.0702 3.77461C50.0548 3.85272 50.0083 3.94645 49.9773 4.04018C49.9464 4.11829 49.8999 4.21202 49.8534 4.29013C49.807 4.36824 49.7605 4.44634 49.7141 4.52445C49.6676 4.60256 49.6057 4.68067 49.5437 4.74316C49.4818 4.82127 49.4198 4.88375 49.3579 4.94624C49.2959 5.00873 49.2185 5.07121 49.1566 5.1337C49.0791 5.19619 49.0172 5.24305 48.9398 5.30554C48.8623 5.3524 48.7849 5.39927 48.7075 5.44613C48.6301 5.493 48.5371 5.52424 48.4597 5.57111C48.3823 5.60235 48.2894 5.63359 48.1964 5.66484C48.1035 5.69608 48.0261 5.7117 47.9332 5.72732C47.8403 5.74294 47.7474 5.75857 47.6544 5.77419C47.5615 5.77419 47.4686 5.77419 47.3757 5.77419Z" fill="#FDDC00"/>
<path d="M62.8926 27.1288C61.8705 27.1288 60.9258 26.5508 60.4303 25.6448L52.6409 11.0697C51.9131 9.69502 52.4241 7.99226 53.7714 7.24242C55.1341 6.5082 56.8221 7.02371 57.5654 8.3828L62.908 18.3651L68.2971 8.36718C68.7152 7.57047 69.4895 7.03934 70.3722 6.91436C71.2549 6.78939 72.1376 7.10182 72.757 7.74231C74.476 9.52318 79.2147 13.7567 86.1678 14.319C87.9177 14.4596 92.579 14.8502 97.2402 12.0383C99.1759 10.8666 100.848 9.3201 102.227 7.42988C102.536 7.00809 103.682 5.71149 105.804 6.52382C106.036 6.61755 106.33 6.74252 106.671 6.89874C107.167 7.13307 107.647 7.38301 107.786 7.46112C109.459 8.33594 110.852 9.41383 111.952 10.6636C114.708 13.7879 115.978 19.0993 113.036 23.1922C111.611 25.1761 109.49 26.4571 107.089 26.7695C104.348 27.1288 101.468 26.254 99.1914 24.3794C99.083 24.2857 98.9591 24.1919 98.8353 24.067C97.7048 23.0047 97.6274 21.2238 98.6804 20.0834C99.7334 18.9431 101.499 18.865 102.629 19.9272C102.66 19.9585 102.691 19.9741 102.722 20.0053C103.791 20.8801 105.153 21.3176 106.361 21.1613C107.244 21.052 107.972 20.6146 108.498 19.8647C109.644 18.2713 109.025 15.8343 107.771 14.4128C107.151 13.7098 106.315 13.0693 105.308 12.5225C103.791 14.2409 102.041 15.6937 100.09 16.8654C93.8798 20.599 87.7164 20.0991 85.6878 19.9272C79.4005 19.4117 74.6308 16.6935 71.4717 14.1784L65.3083 25.6135C64.8128 26.5196 63.8682 27.082 62.8461 27.082L62.8926 27.1288Z" fill="#232323"/>
<path d="M62.8926 27.1288C61.8705 27.1288 60.9258 26.5508 60.4303 25.6448L52.6409 11.0697C51.9131 9.69502 52.4241 7.99226 53.7714 7.24242C55.1341 6.5082 56.8221 7.02371 57.5654 8.3828L62.908 18.3651L68.2971 8.36718C68.7152 7.57047 69.4895 7.03934 70.3722 6.91436C71.2549 6.78939 72.1376 7.10182 72.757 7.74231C74.476 9.52318 79.2147 13.7567 86.1678 14.319C87.9177 14.4596 92.579 14.8502 97.2402 12.0383C99.1759 10.8666 100.848 9.3201 102.227 7.42988C102.536 7.00809 103.682 5.71149 105.804 6.52382C106.036 6.61755 106.33 6.74252 106.671 6.89874C107.167 7.13307 107.647 7.38301 107.786 7.46112C109.459 8.33594 110.852 9.41383 111.952 10.6636C114.708 13.7879 115.978 19.0993 113.036 23.1922C111.611 25.1761 109.49 26.4571 107.089 26.7695C104.348 27.1288 101.468 26.254 99.1914 24.3794C99.083 24.2857 98.9591 24.1919 98.8353 24.067C97.7048 23.0047 97.6274 21.2238 98.6804 20.0834C99.7334 18.9431 101.499 18.865 102.629 19.9272C102.66 19.9585 102.691 19.9741 102.722 20.0053C103.791 20.8801 105.153 21.3176 106.361 21.1613C107.244 21.052 107.972 20.6146 108.498 19.8647C109.644 18.2713 109.025 15.8343 107.771 14.4128C107.151 13.7098 106.315 13.0693 105.308 12.5225C103.791 14.2409 102.041 15.6937 100.09 16.8654C93.8798 20.599 87.7164 20.0991 85.6878 19.9272C79.4005 19.4117 74.6308 16.6935 71.4717 14.1784L65.3083 25.6135C64.8128 26.5196 63.8682 27.082 62.8461 27.082L62.8926 27.1288Z" fill="black" fill-opacity="0.2"/>
<path d="M62.8926 27.1288C61.8705 27.1288 60.9258 26.5508 60.4303 25.6448L52.6409 11.0697C51.9131 9.69502 52.4241 7.99226 53.7714 7.24242C55.1341 6.5082 56.8221 7.02371 57.5654 8.3828L62.908 18.3651L68.2971 8.36718C68.7152 7.57047 69.4895 7.03934 70.3722 6.91436C71.2549 6.78939 72.1376 7.10182 72.757 7.74231C74.476 9.52318 79.2147 13.7567 86.1678 14.319C87.9177 14.4596 92.579 14.8502 97.2402 12.0383C99.1759 10.8666 100.848 9.3201 102.227 7.42988C102.536 7.00809 103.682 5.71149 105.804 6.52382C106.036 6.61755 106.33 6.74252 106.671 6.89874C107.167 7.13307 107.647 7.38301 107.786 7.46112C109.459 8.33594 110.852 9.41383 111.952 10.6636C114.708 13.7879 115.978 19.0993 113.036 23.1922C111.611 25.1761 109.49 26.4571 107.089 26.7695C104.348 27.1288 101.468 26.254 99.1914 24.3794C99.083 24.2857 98.9591 24.1919 98.8353 24.067C97.7048 23.0047 97.6274 21.2238 98.6804 20.0834C99.7334 18.9431 101.499 18.865 102.629 19.9272C102.66 19.9585 102.691 19.9741 102.722 20.0053C103.791 20.8801 105.153 21.3176 106.361 21.1613C107.244 21.052 107.972 20.6146 108.498 19.8647C109.644 18.2713 109.025 15.8343 107.771 14.4128C107.151 13.7098 106.315 13.0693 105.308 12.5225C103.791 14.2409 102.041 15.6937 100.09 16.8654C93.8798 20.599 87.7164 20.0991 85.6878 19.9272C79.4005 19.4117 74.6308 16.6935 71.4717 14.1784L65.3083 25.6135C64.8128 26.5196 63.8682 27.082 62.8461 27.082L62.8926 27.1288Z" fill="black" fill-opacity="0.2"/>
<path d="M62.8926 27.1288C61.8705 27.1288 60.9258 26.5508 60.4303 25.6448L52.6409 11.0697C51.9131 9.69502 52.4241 7.99226 53.7714 7.24242C55.1341 6.5082 56.8221 7.02371 57.5654 8.3828L62.908 18.3651L68.2971 8.36718C68.7152 7.57047 69.4895 7.03934 70.3722 6.91436C71.2549 6.78939 72.1376 7.10182 72.757 7.74231C74.476 9.52318 79.2147 13.7567 86.1678 14.319C87.9177 14.4596 92.579 14.8502 97.2402 12.0383C99.1759 10.8666 100.848 9.3201 102.227 7.42988C102.536 7.00809 103.682 5.71149 105.804 6.52382C106.036 6.61755 106.33 6.74252 106.671 6.89874C107.167 7.13307 107.647 7.38301 107.786 7.46112C109.459 8.33594 110.852 9.41383 111.952 10.6636C114.708 13.7879 115.978 19.0993 113.036 23.1922C111.611 25.1761 109.49 26.4571 107.089 26.7695C104.348 27.1288 101.468 26.254 99.1914 24.3794C99.083 24.2857 98.9591 24.1919 98.8353 24.067C97.7048 23.0047 97.6274 21.2238 98.6804 20.0834C99.7334 18.9431 101.499 18.865 102.629 19.9272C102.66 19.9585 102.691 19.9741 102.722 20.0053C103.791 20.8801 105.153 21.3176 106.361 21.1613C107.244 21.052 107.972 20.6146 108.498 19.8647C109.644 18.2713 109.025 15.8343 107.771 14.4128C107.151 13.7098 106.315 13.0693 105.308 12.5225C103.791 14.2409 102.041 15.6937 100.09 16.8654C93.8798 20.599 87.7164 20.0991 85.6878 19.9272C79.4005 19.4117 74.6308 16.6935 71.4717 14.1784L65.3083 25.6135C64.8128 26.5196 63.8682 27.082 62.8461 27.082L62.8926 27.1288Z" fill="black" fill-opacity="0.2"/>
<path d="M85.5329 26.9726C80.0509 26.9726 75.591 22.4736 75.591 16.9435C75.591 11.4134 80.0509 6.91438 85.5329 6.91438C91.0149 6.91438 95.4749 11.4134 95.4749 16.9435C95.4749 22.4736 91.0149 26.9726 85.5329 26.9726ZM85.5329 12.5694C83.1326 12.5694 81.1969 14.5378 81.1969 16.9435C81.1969 19.3492 83.1481 21.3176 85.5329 21.3176C87.9177 21.3176 89.869 19.3492 89.869 16.9435C89.869 14.5378 87.9177 12.5694 85.5329 12.5694Z" fill="#232323"/>
<path d="M85.5329 26.9726C80.0509 26.9726 75.591 22.4736 75.591 16.9435C75.591 11.4134 80.0509 6.91438 85.5329 6.91438C91.0149 6.91438 95.4749 11.4134 95.4749 16.9435C95.4749 22.4736 91.0149 26.9726 85.5329 26.9726ZM85.5329 12.5694C83.1326 12.5694 81.1969 14.5378 81.1969 16.9435C81.1969 19.3492 83.1481 21.3176 85.5329 21.3176C87.9177 21.3176 89.869 19.3492 89.869 16.9435C89.869 14.5378 87.9177 12.5694 85.5329 12.5694Z" fill="black" fill-opacity="0.2"/>
<path d="M85.5329 26.9726C80.0509 26.9726 75.591 22.4736 75.591 16.9435C75.591 11.4134 80.0509 6.91438 85.5329 6.91438C91.0149 6.91438 95.4749 11.4134 95.4749 16.9435C95.4749 22.4736 91.0149 26.9726 85.5329 26.9726ZM85.5329 12.5694C83.1326 12.5694 81.1969 14.5378 81.1969 16.9435C81.1969 19.3492 83.1481 21.3176 85.5329 21.3176C87.9177 21.3176 89.869 19.3492 89.869 16.9435C89.869 14.5378 87.9177 12.5694 85.5329 12.5694Z" fill="black" fill-opacity="0.2"/>
<path d="M85.5329 26.9726C80.0509 26.9726 75.591 22.4736 75.591 16.9435C75.591 11.4134 80.0509 6.91438 85.5329 6.91438C91.0149 6.91438 95.4749 11.4134 95.4749 16.9435C95.4749 22.4736 91.0149 26.9726 85.5329 26.9726ZM85.5329 12.5694C83.1326 12.5694 81.1969 14.5378 81.1969 16.9435C81.1969 19.3492 83.1481 21.3176 85.5329 21.3176C87.9177 21.3176 89.869 19.3492 89.869 16.9435C89.869 14.5378 87.9177 12.5694 85.5329 12.5694Z" fill="black" fill-opacity="0.2"/>
<path d="M10.4419 27.0195C4.95993 27.0195 0.5 22.5205 0.5 16.9904C0.5 11.4603 4.95993 6.96129 10.4419 6.96129C15.9239 6.96129 20.3839 11.4603 20.3839 16.9904C20.3839 22.5205 15.9239 27.0195 10.4419 27.0195ZM10.4419 12.6163C8.04162 12.6163 6.10588 14.5847 6.10588 16.9904C6.10588 19.3962 8.0571 21.3645 10.4419 21.3645C12.8267 21.3645 14.778 19.3962 14.778 16.9904C14.778 14.5847 12.8267 12.6163 10.4419 12.6163Z" fill="#232323"/>
<path d="M10.4419 27.0195C4.95993 27.0195 0.5 22.5205 0.5 16.9904C0.5 11.4603 4.95993 6.96129 10.4419 6.96129C15.9239 6.96129 20.3839 11.4603 20.3839 16.9904C20.3839 22.5205 15.9239 27.0195 10.4419 27.0195ZM10.4419 12.6163C8.04162 12.6163 6.10588 14.5847 6.10588 16.9904C6.10588 19.3962 8.0571 21.3645 10.4419 21.3645C12.8267 21.3645 14.778 19.3962 14.778 16.9904C14.778 14.5847 12.8267 12.6163 10.4419 12.6163Z" fill="black" fill-opacity="0.2"/>
<path d="M10.4419 27.0195C4.95993 27.0195 0.5 22.5205 0.5 16.9904C0.5 11.4603 4.95993 6.96129 10.4419 6.96129C15.9239 6.96129 20.3839 11.4603 20.3839 16.9904C20.3839 22.5205 15.9239 27.0195 10.4419 27.0195ZM10.4419 12.6163C8.04162 12.6163 6.10588 14.5847 6.10588 16.9904C6.10588 19.3962 8.0571 21.3645 10.4419 21.3645C12.8267 21.3645 14.778 19.3962 14.778 16.9904C14.778 14.5847 12.8267 12.6163 10.4419 12.6163Z" fill="black" fill-opacity="0.2"/>
<path d="M10.4419 27.0195C4.95993 27.0195 0.5 22.5205 0.5 16.9904C0.5 11.4603 4.95993 6.96129 10.4419 6.96129C15.9239 6.96129 20.3839 11.4603 20.3839 16.9904C20.3839 22.5205 15.9239 27.0195 10.4419 27.0195ZM10.4419 12.6163C8.04162 12.6163 6.10588 14.5847 6.10588 16.9904C6.10588 19.3962 8.0571 21.3645 10.4419 21.3645C12.8267 21.3645 14.778 19.3962 14.778 16.9904C14.778 14.5847 12.8267 12.6163 10.4419 12.6163Z" fill="black" fill-opacity="0.2"/>
<path d="M32.4938 27.0352C26.9344 27.0352 22.397 22.4736 22.397 16.8498V9.492C22.397 7.92983 23.6514 6.66448 25.2 6.66448C26.7486 6.66448 28.0029 7.92983 28.0029 9.492V16.8498C28.0029 19.3493 30.0161 21.3801 32.4938 21.3801C34.9715 21.3801 36.9847 19.3493 36.9847 16.8498V9.492C36.9847 7.92983 38.2391 6.66448 39.7877 6.66448C41.3362 6.66448 42.5906 7.92983 42.5906 9.492V16.8498C42.5906 22.458 38.0687 27.0352 32.4938 27.0352Z" fill="#232323"/>
<path d="M32.4938 27.0352C26.9344 27.0352 22.397 22.4736 22.397 16.8498V9.492C22.397 7.92983 23.6514 6.66448 25.2 6.66448C26.7486 6.66448 28.0029 7.92983 28.0029 9.492V16.8498C28.0029 19.3493 30.0161 21.3801 32.4938 21.3801C34.9715 21.3801 36.9847 19.3493 36.9847 16.8498V9.492C36.9847 7.92983 38.2391 6.66448 39.7877 6.66448C41.3362 6.66448 42.5906 7.92983 42.5906 9.492V16.8498C42.5906 22.458 38.0687 27.0352 32.4938 27.0352Z" fill="black" fill-opacity="0.2"/>
<path d="M32.4938 27.0352C26.9344 27.0352 22.397 22.4736 22.397 16.8498V9.492C22.397 7.92983 23.6514 6.66448 25.2 6.66448C26.7486 6.66448 28.0029 7.92983 28.0029 9.492V16.8498C28.0029 19.3493 30.0161 21.3801 32.4938 21.3801C34.9715 21.3801 36.9847 19.3493 36.9847 16.8498V9.492C36.9847 7.92983 38.2391 6.66448 39.7877 6.66448C41.3362 6.66448 42.5906 7.92983 42.5906 9.492V16.8498C42.5906 22.458 38.0687 27.0352 32.4938 27.0352Z" fill="black" fill-opacity="0.2"/>
<path d="M32.4938 27.0352C26.9344 27.0352 22.397 22.4736 22.397 16.8498V9.492C22.397 7.92983 23.6514 6.66448 25.2 6.66448C26.7486 6.66448 28.0029 7.92983 28.0029 9.492V16.8498C28.0029 19.3493 30.0161 21.3801 32.4938 21.3801C34.9715 21.3801 36.9847 19.3493 36.9847 16.8498V9.492C36.9847 7.92983 38.2391 6.66448 39.7877 6.66448C41.3362 6.66448 42.5906 7.92983 42.5906 9.492V16.8498C42.5906 22.458 38.0687 27.0352 32.4938 27.0352Z" fill="black" fill-opacity="0.2"/>
<path d="M10.5038 35.8926C8.72297 35.8926 7.29827 35.4083 6.47752 35.049C5.06831 34.4242 4.4179 32.7683 5.03734 31.3311C5.65677 29.9095 7.29827 29.2534 8.72297 29.8782C9.14109 30.0657 10.2716 30.4563 11.5879 30.1126C12.0215 30.0032 13.09 29.6439 13.8643 28.6441C14.5921 27.7225 14.7315 26.6914 14.8244 25.8635C14.8244 25.7229 14.8244 25.2698 14.8244 24.5356C14.8244 23.9732 14.8244 23.2234 14.8244 22.1611V20.9114C14.8244 20.3803 14.8244 20.1772 14.8244 19.771C14.8244 18.5681 14.7779 17.3653 14.747 16.1936C14.685 14.6315 15.8929 13.3349 17.4415 13.2724C18.9901 13.2099 20.2754 14.4284 20.3374 15.9906C20.3838 17.2091 20.4148 18.4588 20.4303 19.7085C20.4303 20.1303 20.4303 20.3334 20.4303 20.8958V22.1299C20.4303 23.1922 20.4303 23.942 20.4458 24.5044C20.4458 26.0666 20.4458 26.1603 20.3993 26.5665C20.2599 27.6756 19.9657 29.9876 18.2623 32.159C16.4969 34.4085 14.205 35.2677 12.9971 35.5802C12.1299 35.8145 11.2936 35.8926 10.5348 35.8926H10.5038Z" fill="#232323"/>
<path d="M10.5038 35.8926C8.72297 35.8926 7.29827 35.4083 6.47752 35.049C5.06831 34.4242 4.4179 32.7683 5.03734 31.3311C5.65677 29.9095 7.29827 29.2534 8.72297 29.8782C9.14109 30.0657 10.2716 30.4563 11.5879 30.1126C12.0215 30.0032 13.09 29.6439 13.8643 28.6441C14.5921 27.7225 14.7315 26.6914 14.8244 25.8635C14.8244 25.7229 14.8244 25.2698 14.8244 24.5356C14.8244 23.9732 14.8244 23.2234 14.8244 22.1611V20.9114C14.8244 20.3803 14.8244 20.1772 14.8244 19.771C14.8244 18.5681 14.7779 17.3653 14.747 16.1936C14.685 14.6315 15.8929 13.3349 17.4415 13.2724C18.9901 13.2099 20.2754 14.4284 20.3374 15.9906C20.3838 17.2091 20.4148 18.4588 20.4303 19.7085C20.4303 20.1303 20.4303 20.3334 20.4303 20.8958V22.1299C20.4303 23.1922 20.4303 23.942 20.4458 24.5044C20.4458 26.0666 20.4458 26.1603 20.3993 26.5665C20.2599 27.6756 19.9657 29.9876 18.2623 32.159C16.4969 34.4085 14.205 35.2677 12.9971 35.5802C12.1299 35.8145 11.2936 35.8926 10.5348 35.8926H10.5038Z" fill="black" fill-opacity="0.2"/>
<path d="M10.5038 35.8926C8.72297 35.8926 7.29827 35.4083 6.47752 35.049C5.06831 34.4242 4.4179 32.7683 5.03734 31.3311C5.65677 29.9095 7.29827 29.2534 8.72297 29.8782C9.14109 30.0657 10.2716 30.4563 11.5879 30.1126C12.0215 30.0032 13.09 29.6439 13.8643 28.6441C14.5921 27.7225 14.7315 26.6914 14.8244 25.8635C14.8244 25.7229 14.8244 25.2698 14.8244 24.5356C14.8244 23.9732 14.8244 23.2234 14.8244 22.1611V20.9114C14.8244 20.3803 14.8244 20.1772 14.8244 19.771C14.8244 18.5681 14.7779 17.3653 14.747 16.1936C14.685 14.6315 15.8929 13.3349 17.4415 13.2724C18.9901 13.2099 20.2754 14.4284 20.3374 15.9906C20.3838 17.2091 20.4148 18.4588 20.4303 19.7085C20.4303 20.1303 20.4303 20.3334 20.4303 20.8958V22.1299C20.4303 23.1922 20.4303 23.942 20.4458 24.5044C20.4458 26.0666 20.4458 26.1603 20.3993 26.5665C20.2599 27.6756 19.9657 29.9876 18.2623 32.159C16.4969 34.4085 14.205 35.2677 12.9971 35.5802C12.1299 35.8145 11.2936 35.8926 10.5348 35.8926H10.5038Z" fill="black" fill-opacity="0.2"/>
<path d="M10.5038 35.8926C8.72297 35.8926 7.29827 35.4083 6.47752 35.049C5.06831 34.4242 4.4179 32.7683 5.03734 31.3311C5.65677 29.9095 7.29827 29.2534 8.72297 29.8782C9.14109 30.0657 10.2716 30.4563 11.5879 30.1126C12.0215 30.0032 13.09 29.6439 13.8643 28.6441C14.5921 27.7225 14.7315 26.6914 14.8244 25.8635C14.8244 25.7229 14.8244 25.2698 14.8244 24.5356C14.8244 23.9732 14.8244 23.2234 14.8244 22.1611V20.9114C14.8244 20.3803 14.8244 20.1772 14.8244 19.771C14.8244 18.5681 14.7779 17.3653 14.747 16.1936C14.685 14.6315 15.8929 13.3349 17.4415 13.2724C18.9901 13.2099 20.2754 14.4284 20.3374 15.9906C20.3838 17.2091 20.4148 18.4588 20.4303 19.7085C20.4303 20.1303 20.4303 20.3334 20.4303 20.8958V22.1299C20.4303 23.1922 20.4303 23.942 20.4458 24.5044C20.4458 26.0666 20.4458 26.1603 20.3993 26.5665C20.2599 27.6756 19.9657 29.9876 18.2623 32.159C16.4969 34.4085 14.205 35.2677 12.9971 35.5802C12.1299 35.8145 11.2936 35.8926 10.5348 35.8926H10.5038Z" fill="black" fill-opacity="0.2"/>
<path d="M12.9816 12.8507C12.5635 12.8507 12.1453 12.835 11.7117 12.7882C10.1786 12.6163 9.06366 11.226 9.234 9.67945C9.40435 8.1329 10.7826 7.00814 12.3157 7.17998C12.8732 7.24247 13.4307 7.22684 13.9727 7.13311C14.747 6.99252 15.4903 6.69571 16.1717 6.2583C17.4725 5.41473 19.2069 5.78965 20.0431 7.08625C20.8794 8.38285 20.5077 10.1481 19.2224 10.9917C17.9061 11.8509 16.4659 12.4289 14.9483 12.6944C14.2979 12.8038 13.632 12.8663 12.9661 12.8663L12.9816 12.8507Z" fill="#232323"/>
<path d="M12.9816 12.8507C12.5635 12.8507 12.1453 12.835 11.7117 12.7882C10.1786 12.6163 9.06366 11.226 9.234 9.67945C9.40435 8.1329 10.7826 7.00814 12.3157 7.17998C12.8732 7.24247 13.4307 7.22684 13.9727 7.13311C14.747 6.99252 15.4903 6.69571 16.1717 6.2583C17.4725 5.41473 19.2069 5.78965 20.0431 7.08625C20.8794 8.38285 20.5077 10.1481 19.2224 10.9917C17.9061 11.8509 16.4659 12.4289 14.9483 12.6944C14.2979 12.8038 13.632 12.8663 12.9661 12.8663L12.9816 12.8507Z" fill="black" fill-opacity="0.2"/>
<path d="M12.9816 12.8507C12.5635 12.8507 12.1453 12.835 11.7117 12.7882C10.1786 12.6163 9.06366 11.226 9.234 9.67945C9.40435 8.1329 10.7826 7.00814 12.3157 7.17998C12.8732 7.24247 13.4307 7.22684 13.9727 7.13311C14.747 6.99252 15.4903 6.69571 16.1717 6.2583C17.4725 5.41473 19.2069 5.78965 20.0431 7.08625C20.8794 8.38285 20.5077 10.1481 19.2224 10.9917C17.9061 11.8509 16.4659 12.4289 14.9483 12.6944C14.2979 12.8038 13.632 12.8663 12.9661 12.8663L12.9816 12.8507Z" fill="black" fill-opacity="0.2"/>
<path d="M12.9816 12.8507C12.5635 12.8507 12.1453 12.835 11.7117 12.7882C10.1786 12.6163 9.06366 11.226 9.234 9.67945C9.40435 8.1329 10.7826 7.00814 12.3157 7.17998C12.8732 7.24247 13.4307 7.22684 13.9727 7.13311C14.747 6.99252 15.4903 6.69571 16.1717 6.2583C17.4725 5.41473 19.2069 5.78965 20.0431 7.08625C20.8794 8.38285 20.5077 10.1481 19.2224 10.9917C17.9061 11.8509 16.4659 12.4289 14.9483 12.6944C14.2979 12.8038 13.632 12.8663 12.9661 12.8663L12.9816 12.8507Z" fill="black" fill-opacity="0.2"/>
<path d="M47.3757 27.1601C45.8271 27.1601 44.5728 25.8948 44.5728 24.3326V9.55449C44.5728 7.99232 45.8271 6.72697 47.3757 6.72697C48.9243 6.72697 50.1787 7.99232 50.1787 9.55449V24.3482C50.1787 25.9104 48.9243 27.1758 47.3757 27.1758V27.1601Z" fill="#232323"/>
<path d="M47.3757 27.1601C45.8271 27.1601 44.5728 25.8948 44.5728 24.3326V9.55449C44.5728 7.99232 45.8271 6.72697 47.3757 6.72697C48.9243 6.72697 50.1787 7.99232 50.1787 9.55449V24.3482C50.1787 25.9104 48.9243 27.1758 47.3757 27.1758V27.1601Z" fill="black" fill-opacity="0.2"/>
<path d="M47.3757 27.1601C45.8271 27.1601 44.5728 25.8948 44.5728 24.3326V9.55449C44.5728 7.99232 45.8271 6.72697 47.3757 6.72697C48.9243 6.72697 50.1787 7.99232 50.1787 9.55449V24.3482C50.1787 25.9104 48.9243 27.1758 47.3757 27.1758V27.1601Z" fill="black" fill-opacity="0.2"/>
<path d="M47.3757 27.1601C45.8271 27.1601 44.5728 25.8948 44.5728 24.3326V9.55449C44.5728 7.99232 45.8271 6.72697 47.3757 6.72697C48.9243 6.72697 50.1787 7.99232 50.1787 9.55449V24.3482C50.1787 25.9104 48.9243 27.1758 47.3757 27.1758V27.1601Z" fill="black" fill-opacity="0.2"/>
<path d="M116.876 26.051C116.458 25.6292 116.257 25.1293 116.257 24.5357C116.257 23.942 116.458 23.4422 116.876 23.0204C117.294 22.5986 117.79 22.3955 118.378 22.3955C118.967 22.3955 119.478 22.5986 119.881 23.0204C120.299 23.4422 120.5 23.942 120.5 24.5357C120.5 25.1293 120.299 25.6292 119.881 26.051C119.462 26.4728 118.967 26.6758 118.378 26.6758C117.79 26.6758 117.279 26.4728 116.876 26.051ZM117.155 23.3016C116.814 23.6452 116.644 24.067 116.644 24.5513C116.644 25.0356 116.814 25.4417 117.155 25.801C117.496 26.1447 117.914 26.3165 118.394 26.3165C118.874 26.3165 119.292 26.1447 119.633 25.801C119.973 25.4573 120.144 25.0356 120.144 24.5513C120.144 24.067 119.973 23.6452 119.633 23.3016C119.292 22.9579 118.874 22.786 118.394 22.786C117.914 22.786 117.496 22.9579 117.155 23.3016ZM117.79 23.3797H118.471C118.688 23.3797 118.859 23.4422 118.998 23.5827C119.137 23.7077 119.199 23.8796 119.199 24.067C119.199 24.2389 119.153 24.3638 119.06 24.4888C118.967 24.5982 118.859 24.6763 118.719 24.7388L119.184 25.4886C119.184 25.4886 119.215 25.5355 119.215 25.5823C119.215 25.6292 119.199 25.6761 119.168 25.7073C119.137 25.7385 119.091 25.7698 119.044 25.7698C118.982 25.7698 118.936 25.7385 118.889 25.6761L118.332 24.7856H117.976V25.5823C117.976 25.5823 117.96 25.6761 117.914 25.7073C117.867 25.7385 117.836 25.7698 117.775 25.7698C117.728 25.7698 117.697 25.7542 117.651 25.7073C117.62 25.6761 117.604 25.6292 117.604 25.5823V23.5984C117.604 23.5984 117.62 23.5046 117.651 23.4578C117.682 23.4109 117.728 23.3953 117.775 23.3953L117.79 23.3797ZM118.471 23.7233H117.991V24.4263H118.487C118.611 24.4263 118.704 24.3951 118.766 24.3326C118.828 24.2701 118.859 24.192 118.859 24.0826C118.859 23.9889 118.828 23.9108 118.75 23.8327C118.688 23.7702 118.595 23.7233 118.471 23.7233Z" fill="#232323"/>
<path d="M116.876 26.051C116.458 25.6292 116.257 25.1293 116.257 24.5357C116.257 23.942 116.458 23.4422 116.876 23.0204C117.294 22.5986 117.79 22.3955 118.378 22.3955C118.967 22.3955 119.478 22.5986 119.881 23.0204C120.299 23.4422 120.5 23.942 120.5 24.5357C120.5 25.1293 120.299 25.6292 119.881 26.051C119.462 26.4728 118.967 26.6758 118.378 26.6758C117.79 26.6758 117.279 26.4728 116.876 26.051ZM117.155 23.3016C116.814 23.6452 116.644 24.067 116.644 24.5513C116.644 25.0356 116.814 25.4417 117.155 25.801C117.496 26.1447 117.914 26.3165 118.394 26.3165C118.874 26.3165 119.292 26.1447 119.633 25.801C119.973 25.4573 120.144 25.0356 120.144 24.5513C120.144 24.067 119.973 23.6452 119.633 23.3016C119.292 22.9579 118.874 22.786 118.394 22.786C117.914 22.786 117.496 22.9579 117.155 23.3016ZM117.79 23.3797H118.471C118.688 23.3797 118.859 23.4422 118.998 23.5827C119.137 23.7077 119.199 23.8796 119.199 24.067C119.199 24.2389 119.153 24.3638 119.06 24.4888C118.967 24.5982 118.859 24.6763 118.719 24.7388L119.184 25.4886C119.184 25.4886 119.215 25.5355 119.215 25.5823C119.215 25.6292 119.199 25.6761 119.168 25.7073C119.137 25.7385 119.091 25.7698 119.044 25.7698C118.982 25.7698 118.936 25.7385 118.889 25.6761L118.332 24.7856H117.976V25.5823C117.976 25.5823 117.96 25.6761 117.914 25.7073C117.867 25.7385 117.836 25.7698 117.775 25.7698C117.728 25.7698 117.697 25.7542 117.651 25.7073C117.62 25.6761 117.604 25.6292 117.604 25.5823V23.5984C117.604 23.5984 117.62 23.5046 117.651 23.4578C117.682 23.4109 117.728 23.3953 117.775 23.3953L117.79 23.3797ZM118.471 23.7233H117.991V24.4263H118.487C118.611 24.4263 118.704 24.3951 118.766 24.3326C118.828 24.2701 118.859 24.192 118.859 24.0826C118.859 23.9889 118.828 23.9108 118.75 23.8327C118.688 23.7702 118.595 23.7233 118.471 23.7233Z" fill="black" fill-opacity="0.2"/>
<path d="M116.876 26.051C116.458 25.6292 116.257 25.1293 116.257 24.5357C116.257 23.942 116.458 23.4422 116.876 23.0204C117.294 22.5986 117.79 22.3955 118.378 22.3955C118.967 22.3955 119.478 22.5986 119.881 23.0204C120.299 23.4422 120.5 23.942 120.5 24.5357C120.5 25.1293 120.299 25.6292 119.881 26.051C119.462 26.4728 118.967 26.6758 118.378 26.6758C117.79 26.6758 117.279 26.4728 116.876 26.051ZM117.155 23.3016C116.814 23.6452 116.644 24.067 116.644 24.5513C116.644 25.0356 116.814 25.4417 117.155 25.801C117.496 26.1447 117.914 26.3165 118.394 26.3165C118.874 26.3165 119.292 26.1447 119.633 25.801C119.973 25.4573 120.144 25.0356 120.144 24.5513C120.144 24.067 119.973 23.6452 119.633 23.3016C119.292 22.9579 118.874 22.786 118.394 22.786C117.914 22.786 117.496 22.9579 117.155 23.3016ZM117.79 23.3797H118.471C118.688 23.3797 118.859 23.4422 118.998 23.5827C119.137 23.7077 119.199 23.8796 119.199 24.067C119.199 24.2389 119.153 24.3638 119.06 24.4888C118.967 24.5982 118.859 24.6763 118.719 24.7388L119.184 25.4886C119.184 25.4886 119.215 25.5355 119.215 25.5823C119.215 25.6292 119.199 25.6761 119.168 25.7073C119.137 25.7385 119.091 25.7698 119.044 25.7698C118.982 25.7698 118.936 25.7385 118.889 25.6761L118.332 24.7856H117.976V25.5823C117.976 25.5823 117.96 25.6761 117.914 25.7073C117.867 25.7385 117.836 25.7698 117.775 25.7698C117.728 25.7698 117.697 25.7542 117.651 25.7073C117.62 25.6761 117.604 25.6292 117.604 25.5823V23.5984C117.604 23.5984 117.62 23.5046 117.651 23.4578C117.682 23.4109 117.728 23.3953 117.775 23.3953L117.79 23.3797ZM118.471 23.7233H117.991V24.4263H118.487C118.611 24.4263 118.704 24.3951 118.766 24.3326C118.828 24.2701 118.859 24.192 118.859 24.0826C118.859 23.9889 118.828 23.9108 118.75 23.8327C118.688 23.7702 118.595 23.7233 118.471 23.7233Z" fill="black" fill-opacity="0.2"/>
<path d="M116.876 26.051C116.458 25.6292 116.257 25.1293 116.257 24.5357C116.257 23.942 116.458 23.4422 116.876 23.0204C117.294 22.5986 117.79 22.3955 118.378 22.3955C118.967 22.3955 119.478 22.5986 119.881 23.0204C120.299 23.4422 120.5 23.942 120.5 24.5357C120.5 25.1293 120.299 25.6292 119.881 26.051C119.462 26.4728 118.967 26.6758 118.378 26.6758C117.79 26.6758 117.279 26.4728 116.876 26.051ZM117.155 23.3016C116.814 23.6452 116.644 24.067 116.644 24.5513C116.644 25.0356 116.814 25.4417 117.155 25.801C117.496 26.1447 117.914 26.3165 118.394 26.3165C118.874 26.3165 119.292 26.1447 119.633 25.801C119.973 25.4573 120.144 25.0356 120.144 24.5513C120.144 24.067 119.973 23.6452 119.633 23.3016C119.292 22.9579 118.874 22.786 118.394 22.786C117.914 22.786 117.496 22.9579 117.155 23.3016ZM117.79 23.3797H118.471C118.688 23.3797 118.859 23.4422 118.998 23.5827C119.137 23.7077 119.199 23.8796 119.199 24.067C119.199 24.2389 119.153 24.3638 119.06 24.4888C118.967 24.5982 118.859 24.6763 118.719 24.7388L119.184 25.4886C119.184 25.4886 119.215 25.5355 119.215 25.5823C119.215 25.6292 119.199 25.6761 119.168 25.7073C119.137 25.7385 119.091 25.7698 119.044 25.7698C118.982 25.7698 118.936 25.7385 118.889 25.6761L118.332 24.7856H117.976V25.5823C117.976 25.5823 117.96 25.6761 117.914 25.7073C117.867 25.7385 117.836 25.7698 117.775 25.7698C117.728 25.7698 117.697 25.7542 117.651 25.7073C117.62 25.6761 117.604 25.6292 117.604 25.5823V23.5984C117.604 23.5984 117.62 23.5046 117.651 23.4578C117.682 23.4109 117.728 23.3953 117.775 23.3953L117.79 23.3797ZM118.471 23.7233H117.991V24.4263H118.487C118.611 24.4263 118.704 24.3951 118.766 24.3326C118.828 24.2701 118.859 24.192 118.859 24.0826C118.859 23.9889 118.828 23.9108 118.75 23.8327C118.688 23.7702 118.595 23.7233 118.471 23.7233Z" fill="black" fill-opacity="0.2"/>
</svg>
